<svg width="25" height="25" viewBox="0 0 141 141" fill="none" xmlns="http://www.w3.org/2000/svg">
<path d="M137 70.5C137 107.227 107.227 137 70.5 137C33.7731 137 4 107.227 4 70.5C4 33.7731 33.7731 4 70.5 4C107.227 4 137 33.7731 137 70.5Z" fill="url(#paint0_linear_4_7)"/>
<path d="M137 70.5C137 107.227 107.227 137 70.5 137C33.7731 137 4 107.227 4 70.5C4 33.7731 33.7731 4 70.5 4C107.227 4 137 33.7731 137 70.5Z" fill="url(#paint1_radial_4_7)" fill-opacity="0.7"/>
<path d="M137 70.5C137 107.227 107.227 137 70.5 137C33.7731 137 4 107.227 4 70.5C4 33.7731 33.7731 4 70.5 4C107.227 4 137 33.7731 137 70.5Z" stroke="white" stroke-width="8"/>
<defs>
<linearGradient id="paint0_linear_4_7" x1="55" y1="112" x2="177.5" y2="-28.5" gradientUnits="userSpaceOnUse">
<stop stop-color="#11F335"/>
<stop offset="1" stop-color="white"/>
</linearGradient>
<radialGradient id="paint1_radial_4_7" cx="0" cy="0" r="1" gradientUnits="userSpaceOnUse" gradientTransform="translate(95 48.5) rotate(126.222) scale(97.3062)">
<stop offset="0.126205" stop-color="#04EE29"/>
<stop offset="0.973406"/>
</radialGradient>
</defs>
</svg>
